<?xml version="1.0" encoding="utf-8"?>
<!-- Uploaded to: SVG Repo, www.svgrepo.com, Generator: SVG Repo Mixer Tools -->
<svg fill="#000000" height="800px" width="800px" version="1.2" baseProfile="tiny" id="Layer_1" xmlns="http://www.w3.org/2000/svg" xmlns:xlink="http://www.w3.org/1999/xlink"
	  viewBox="-415 217 128 128" xml:space="preserve">
<path id="Layer_1_1_" d="M-332.8,252.4v-6.5h-18.4h-0.1h-18.4v6.5h-18v91.7h27v-21.5h19.1v21.5h27v-91.7H-332.8z M-363.7,312.7
	L-363.7,312.7h-12v-12.1h12C-363.7,300.6-363.7,312.7-363.7,312.7z M-363.7,294.5L-363.7,294.5h-12v-12h12
	C-363.7,282.6-363.7,294.5-363.7,294.5z M-363.7,276.5h-12.1v-12h12v12H-363.7z M-344.8,312.7h-12.8v-12.1h12.8
	C-344.8,300.6-344.8,312.7-344.8,312.7z M-344.8,294.5h-12.8v-12h6.4h0.1h6.4v12H-344.8z M-344.8,276.5h-6.4h-0.1h-6.4v-12h6.4h0.1
	h6.4V276.5z M-326.8,312.7h-11l0,0h-1.1v-12.1h1.1h11V312.7z M-326.8,294.7h-11l0,0h-1.1v-12.1h12v12.1H-326.8z M-326.8,276.5h-12.1
	v-12h12v12H-326.8z M-364.8,241.2c4.1,0,7.9-2.3,9.7-5.7h5.8l3.6-3.6l2.8,2.8l2.7-2.7l2.7,2.8l2.8-2.8l2.8,2.8l4.7-4.7
	c0.7-0.7,0.7-1.1,0-1.9l-3.9-4h-24.1c-2-3.5-5.7-5.8-9.9-5.8c-6.2,0-11.3,5.1-11.3,11.4C-376.1,236.1-371,241.2-364.8,241.2z
	 M-369.8,226.6c1.7,0,3,1.4,3,3.1s-1.4,3.1-3,3.1c-1.6,0-3-1.4-3-3.1C-372.7,228-371.5,226.6-369.8,226.6z"/>
</svg>